<?xml version="1.0" standalone="no"?>
<!DOCTYPE svg PUBLIC "-//W3C//DTD SVG 20010904//EN"
 "http://www.w3.org/TR/2001/REC-SVG-20010904/DTD/svg10.dtd">
<svg version="1.0" xmlns="http://www.w3.org/2000/svg"
 width="473.000000pt" height="473.000000pt" viewBox="0 0 473.000000 473.000000"
 preserveAspectRatio="xMidYMid meet">
<metadata>
Created by potrace 1.11, written by Peter Selinger 2001-2013
</metadata>
<g transform="translate(0.000000,473.000000) scale(0.100000,-0.100000)"
fill="#000000" stroke="none">
<path d="M4010 4221 c0 -6 -8 -10 -17 -9 -21 0 -70 -7 -213 -32 -60 -10 -123
-21 -155 -25 -11 -1 -31 -5 -45 -8 -14 -4 -41 -9 -60 -12 -19 -2 -46 -7 -60
-10 -14 -3 -38 -8 -55 -10 -16 -3 -37 -8 -45 -10 -8 -2 -26 -6 -40 -9 -14 -2
-57 -11 -95 -20 -39 -8 -82 -17 -95 -20 -14 -3 -40 -9 -58 -15 -18 -5 -35 -10
-37 -10 -27 -3 -113 -28 -285 -82 -127 -41 -346 -128 -392 -156 -21 -13 -42
-23 -46 -23 -16 0 -192 -99 -285 -161 -450 -299 -886 -847 -1117 -1404 -23
-55 -45 -109 -50 -120 -10 -25 -62 -176 -65 -190 -1 -5 -7 -30 -14 -55 -14
-48 -15 -54 -31 -140 -6 -30 -12 -64 -14 -75 -16 -82 -20 -143 -20 -305 0
-169 5 -263 19 -330 3 -14 7 -41 10 -60 5 -36 9 -55 19 -100 3 -14 8 -36 10
-50 6 -31 57 -221 85 -315 24 -79 24 -82 -18 -220 -28 -96 -29 -101 -12 -129
10 -19 29 -33 50 -38 55 -15 75 7 113 124 l33 103 80 52 c312 200 533 356 650
458 17 14 60 51 97 83 145 123 376 369 550 583 82 100 89 112 75 127 -18 21
-30 71 -41 173 -6 51 -10 79 -21 139 -12 67 -16 119 -8 123 5 3 45 9 89 12
198 14 286 24 321 34 17 5 33 8 35 5 2 -2 18 18 35 44 17 26 59 87 92 135 34
48 61 92 61 97 0 4 4 10 8 12 8 3 139 202 298 454 105 166 90 141 205 329 50
83 101 166 114 185 25 39 171 288 315 535 51 88 101 172 111 186 23 32 27 92
9 114 -7 9 -29 23 -48 31 -41 17 -42 17 -42 5z"/>
</g>
</svg>
