<?xml version="1.0" standalone="no"?>
<!DOCTYPE svg PUBLIC "-//W3C//DTD SVG 20010904//EN"
 "http://www.w3.org/TR/2001/REC-SVG-20010904/DTD/svg10.dtd">
<svg version="1.0" xmlns="http://www.w3.org/2000/svg"
 width="300.000000pt" height="300.000000pt" viewBox="0 0 300.000000 300.000000"
 preserveAspectRatio="xMidYMid meet">
<metadata>
Created by potrace 1.11, written by Peter Selinger 2001-2013
</metadata>
<g transform="translate(0.000000,300.000000) scale(0.100000,-0.100000)"
fill="#000000" stroke="none">
<path d="M1899 1963 c-15 -9 -34 -29 -43 -45 -10 -15 -23 -28 -31 -28 -8 0
-18 -6 -22 -13 -4 -8 -15 -16 -24 -20 -23 -8 -53 -90 -45 -122 6 -23 10 -26
40 -21 53 9 84 23 90 43 3 11 24 36 45 57 49 48 108 59 162 29 73 -40 87 -53
98 -98 24 -94 9 -171 -44 -235 -19 -23 -35 -45 -35 -49 0 -4 -19 -20 -42 -36
-39 -26 -52 -29 -153 -33 l-110 -4 -63 59 c-57 53 -152 176 -152 195 0 5 -10
20 -22 33 -13 13 -59 64 -103 113 -64 72 -94 97 -151 126 -67 33 -78 36 -162
36 -50 0 -103 -5 -119 -11 -15 -6 -28 -9 -28 -7 0 2 -11 -7 -24 -19 -13 -12
-43 -27 -67 -34 -26 -8 -59 -29 -82 -52 l-37 -38 -3 -112 c-5 -148 14 -228 68
-302 64 -87 65 -87 247 -83 147 3 160 5 182 25 13 12 38 29 55 37 17 9 44 24
60 35 17 11 33 18 37 16 3 -3 29 17 57 44 l50 48 14 -26 c7 -14 48 -60 91
-102 59 -58 86 -79 114 -84 58 -11 266 -7 298 5 35 13 125 71 125 80 0 3 15
24 34 46 64 75 78 110 84 217 3 57 1 113 -6 135 -6 20 -14 53 -19 71 -8 35
-29 52 -133 109 -50 27 -195 37 -231 15z m-694 -137 c11 -9 27 -16 36 -16 17
0 152 -133 194 -189 25 -35 33 -57 16 -47 -5 4 -22 -7 -38 -22 -15 -16 -44
-36 -63 -46 -19 -10 -51 -27 -70 -37 -19 -10 -48 -29 -64 -43 -27 -24 -35 -26
-137 -25 l-108 0 -30 38 c-44 56 -53 85 -57 197 l-5 101 98 50 c108 55 188 69
228 39z"/>
</g>
</svg>
